<mxfile host="65bd71144e">
    <diagram id="PakT-3YC46p6OAG820wa" name="Page-1">
        <mxGraphModel dx="829" dy="390" grid="0" gridSize="10" guides="1" tooltips="1" connect="1" arrows="1" fold="1" page="1" pageScale="1" pageWidth="827" pageHeight="1169" math="0" shadow="0">
            <root>
                <mxCell id="0"/>
                <mxCell id="1" parent="0"/>
                <mxCell id="8" style="edgeStyle=none;html=1;entryX=0.5;entryY=0;entryDx=0;entryDy=0;" parent="1" source="7" target="9" edge="1">
                    <mxGeometry relative="1" as="geometry">
                        <mxPoint x="436" y="231" as="targetPoint"/>
                    </mxGeometry>
                </mxCell>
                <mxCell id="7" value="Programmet starter" style="ellipse;whiteSpace=wrap;html=1;" parent="1" vertex="1">
                    <mxGeometry x="386.75" y="115" width="140" height="70" as="geometry"/>
                </mxCell>
                <mxCell id="10" style="edgeStyle=none;html=1;exitX=0.5;exitY=1;exitDx=0;exitDy=0;" parent="1" source="9" target="11" edge="1">
                    <mxGeometry relative="1" as="geometry">
                        <mxPoint x="436" y="397" as="targetPoint"/>
                    </mxGeometry>
                </mxCell>
                <mxCell id="14" style="edgeStyle=none;html=1;entryX=1;entryY=0.5;entryDx=0;entryDy=0;" parent="1" source="9" target="13" edge="1">
                    <mxGeometry relative="1" as="geometry">
                        <mxPoint x="282" y="277.5" as="targetPoint"/>
                    </mxGeometry>
                </mxCell>
                <mxCell id="9" value="Sender GET forespørsel&lt;br&gt;til flask server, hvis alt går&amp;nbsp;&lt;br&gt;bra sender den data" style="html=1;" parent="1" vertex="1">
                    <mxGeometry x="366" y="231" width="181.5" height="93" as="geometry"/>
                </mxCell>
                <mxCell id="28" style="edgeStyle=none;html=1;entryX=0.5;entryY=0;entryDx=0;entryDy=0;" parent="1" source="11" target="27" edge="1">
                    <mxGeometry relative="1" as="geometry"/>
                </mxCell>
                <mxCell id="11" value="Fyller ut verdenskart/ populasjonsvekst" style="html=1;" parent="1" vertex="1">
                    <mxGeometry x="347.56" y="430" width="218.37" height="50" as="geometry"/>
                </mxCell>
                <mxCell id="13" value="Sender feilmelding til frontent&lt;br&gt;og logger feil i konsollen" style="html=1;" parent="1" vertex="1">
                    <mxGeometry x="42" y="236.25" width="175" height="82.5" as="geometry"/>
                </mxCell>
                <mxCell id="16" value="Reponse == 200" style="text;align=center;fontStyle=1;verticalAlign=middle;spacingLeft=3;spacingRight=3;strokeColor=none;rotatable=0;points=[[0,0.5],[1,0.5]];portConstraint=eastwest;" parent="1" vertex="1">
                    <mxGeometry x="477" y="364" width="107" height="26" as="geometry"/>
                </mxCell>
                <mxCell id="17" value="Response !== 200" style="text;align=center;fontStyle=1;verticalAlign=middle;spacingLeft=3;spacingRight=3;strokeColor=none;rotatable=0;points=[[0,0.5],[1,0.5]];portConstraint=eastwest;" parent="1" vertex="1">
                    <mxGeometry x="261" y="241" width="61" height="26" as="geometry"/>
                </mxCell>
                <mxCell id="30" style="edgeStyle=none;html=1;exitX=0;exitY=0.5;exitDx=0;exitDy=0;" parent="1" source="27" edge="1">
                    <mxGeometry relative="1" as="geometry">
                        <mxPoint x="458" y="495" as="targetPoint"/>
                        <Array as="points">
                            <mxPoint x="155" y="558"/>
                            <mxPoint x="157" y="500"/>
                        </Array>
                    </mxGeometry>
                </mxCell>
                <mxCell id="38" value="" style="edgeStyle=none;html=1;" parent="1" source="27" target="37" edge="1">
                    <mxGeometry relative="1" as="geometry"/>
                </mxCell>
                <mxCell id="27" value="Bruker kan velge &lt;br&gt;kontinent og/eller land" style="shape=parallelogram;perimeter=parallelogramPerimeter;whiteSpace=wrap;html=1;fixedSize=1;" parent="1" vertex="1">
                    <mxGeometry x="350.93" y="525" width="215" height="60" as="geometry"/>
                </mxCell>
                <mxCell id="35" value="Bruker gjør ingenting" style="text;align=center;fontStyle=1;verticalAlign=middle;spacingLeft=3;spacingRight=3;strokeColor=none;rotatable=0;points=[[0,0.5],[1,0.5]];portConstraint=eastwest;" parent="1" vertex="1">
                    <mxGeometry x="206" y="572" width="80" height="26" as="geometry"/>
                </mxCell>
                <mxCell id="41" style="edgeStyle=none;html=1;exitX=0;exitY=0;exitDx=0;exitDy=0;" parent="1" source="37" edge="1">
                    <mxGeometry relative="1" as="geometry">
                        <mxPoint x="664" y="435" as="targetPoint"/>
                    </mxGeometry>
                </mxCell>
                <mxCell id="44" style="edgeStyle=none;html=1;exitX=1;exitY=0;exitDx=0;exitDy=0;" parent="1" source="37" edge="1">
                    <mxGeometry relative="1" as="geometry">
                        <mxPoint x="738" y="341" as="targetPoint"/>
                        <Array as="points"/>
                    </mxGeometry>
                </mxCell>
                <mxCell id="37" value="Bruker&amp;nbsp; kan velge&lt;br&gt;land/ kontinent" style="rhombus;whiteSpace=wrap;html=1;" parent="1" vertex="1">
                    <mxGeometry x="629" y="496" width="151" height="118" as="geometry"/>
                </mxCell>
                <mxCell id="40" value="Viser befolkning-&lt;br&gt;vekst" style="html=1;" parent="1" vertex="1">
                    <mxGeometry x="613" y="387" width="110" height="50" as="geometry"/>
                </mxCell>
                <mxCell id="42" value="land" style="text;align=center;fontStyle=1;verticalAlign=middle;spacingLeft=3;spacingRight=3;strokeColor=none;rotatable=0;points=[[0,0.5],[1,0.5]];portConstraint=eastwest;" parent="1" vertex="1">
                    <mxGeometry x="590" y="480" width="80" height="26" as="geometry"/>
                </mxCell>
                <mxCell id="45" value="&lt;span style=&quot;font-weight: 700;&quot;&gt;Viser kart&lt;/span&gt;&lt;br style=&quot;padding: 0px; margin: 0px; font-weight: 700;&quot;&gt;&lt;span style=&quot;font-weight: 700;&quot;&gt;av kontinent&lt;/span&gt;" style="html=1;" parent="1" vertex="1">
                    <mxGeometry x="680" y="294" width="110" height="50" as="geometry"/>
                </mxCell>
                <mxCell id="46" value="kontinent" style="text;align=center;fontStyle=1;verticalAlign=middle;spacingLeft=3;spacingRight=3;strokeColor=none;rotatable=0;points=[[0,0.5],[1,0.5]];portConstraint=eastwest;" parent="1" vertex="1">
                    <mxGeometry x="744" y="411" width="80" height="26" as="geometry"/>
                </mxCell>
                <mxCell id="53" value="" style="endArrow=block;endFill=1;html=1;edgeStyle=orthogonalEdgeStyle;align=left;verticalAlign=top;exitX=0;exitY=0.5;exitDx=0;exitDy=0;" parent="1" source="45" edge="1">
                    <mxGeometry x="-1" y="-41" relative="1" as="geometry">
                        <mxPoint x="654" y="346" as="sourcePoint"/>
                        <mxPoint x="456" y="496" as="targetPoint"/>
                        <Array as="points">
                            <mxPoint x="680" y="316"/>
                            <mxPoint x="587" y="316"/>
                            <mxPoint x="587" y="496"/>
                        </Array>
                        <mxPoint x="-21" y="36" as="offset"/>
                    </mxGeometry>
                </mxCell>
                <mxCell id="60" value="" style="endArrow=block;endFill=1;html=1;edgeStyle=orthogonalEdgeStyle;align=left;verticalAlign=top;exitX=0;exitY=0.5;exitDx=0;exitDy=0;" parent="1" source="40" edge="1">
                    <mxGeometry x="-1" relative="1" as="geometry">
                        <mxPoint x="584" y="253.62" as="sourcePoint"/>
                        <mxPoint x="456" y="507" as="targetPoint"/>
                        <Array as="points">
                            <mxPoint x="598" y="412"/>
                        </Array>
                    </mxGeometry>
                </mxCell>
            </root>
        </mxGraphModel>
    </diagram>
</mxfile>